<svg id="Icons" height="512" viewBox="0 0 74 74" width="512" xmlns="http://www.w3.org/2000/svg"><path d="m23.858 71.8a1 1 0 0 1 -1-.99l-.15-15.605a1 1 0 0 1 .111-.468l25.581-49.563a5.867 5.867 0 0 1 7.9-2.52l4.32 2.23a5.868 5.868 0 0 1 2.52 7.9l-25.584 49.56a1 1 0 0 1 -.317.362l-12.809 8.917a1 1 0 0 1 -.572.177zm.852-16.367.13 13.467 11.052-7.693 25.471-49.343a3.866 3.866 0 0 0 -1.66-5.2l-4.32-2.23a3.861 3.861 0 0 0 -5.2 1.66z"/><path d="m35.727 62.227c-3.035-8.372-11.4-6.165-11.752-6.066l-.533-1.928c.105-.029 10.507-2.779 14.166 7.313z"/><path d="m52.448 6.188h2v14.584h-2z" transform="matrix(.459 -.889 .889 .459 16.953 54.79)"/><path d="m49.103 12.668h2v14.584h-2z" transform="matrix(.459 -.889 .889 .459 9.385 55.326)"/><path d="m20.564 36.955h40.501v2h-40.501z" transform="matrix(.459 -.889 .889 .459 -11.629 56.823)"/><path d="m8.232 70h57.768v2h-57.768z"/></svg>